<svg width="40" height="40" viewBox="0 0 40 40" fill="none" xmlns="http://www.w3.org/2000/svg">
<rect x="13.7057" y="9.27774" width="21.6935" height="2.41039" fill="black"/>
<rect x="13.7057" y="18.7141" width="21.6935" height="2.41039" fill="black"/>
<rect x="13.7057" y="28.3557" width="21.6935" height="2.41039" fill="black"/>
<path fill-rule="evenodd" clip-rule="evenodd" d="M11.1188 8.49866L7.12181 12.4956L3.68765 9.7483L4.44053 8.8072L7.03236 10.8807L10.2666 7.64645L11.1188 8.49866Z" fill="black"/>
<path fill-rule="evenodd" clip-rule="evenodd" d="M11.1188 17.935L7.12181 21.932L3.68765 19.1847L4.44053 18.2436L7.03236 20.317L10.2666 17.0828L11.1188 17.935Z" fill="black"/>
<path fill-rule="evenodd" clip-rule="evenodd" d="M9.66397 33L4.84319 28.1792L5.69539 27.327L10.5162 32.1477L9.66397 33Z" fill="black"/>
<path fill-rule="evenodd" clip-rule="evenodd" d="M9.66397 27.327L4.84319 32.1478L5.69539 33L10.5162 28.1792L9.66397 27.327Z" fill="black"/>
</svg>
