<svg width="24" height="24" viewBox="0 0 24 24" fill="none" xmlns="http://www.w3.org/2000/svg">
<path d="M20.7749 11.8829L22.5121 10.1457C22.9668 9.69103 22.9668 8.95416 22.5121 8.49946C22.0584 8.04478 21.3205 8.04478 20.8668 8.49946L19.1296 10.2366L17.3924 8.49946C16.9377 8.04478 16.2008 8.04478 15.7471 8.49946C15.2924 8.95414 15.2924 9.69101 15.7471 10.1457L17.4843 11.8829L15.7471 13.6201C15.2924 14.0748 15.2924 14.8116 15.7461 15.2654C15.973 15.4923 16.2711 15.6067 16.5693 15.6067C16.8674 15.6067 17.1646 15.4923 17.3924 15.2654L19.1296 13.5282L20.8668 15.2654C21.0936 15.4923 21.3918 15.6067 21.6899 15.6067C21.988 15.6067 22.2852 15.4923 22.513 15.2654C22.9677 14.8107 22.9677 14.0739 22.513 13.6201L20.7749 11.8829Z" fill="black"/>
<path d="M13.1755 2.32776L6.02426 7.8L0.839783 8.25562V15.7443L6.02426 16.2L13.1755 21.6722V2.32776Z" fill="black"/>
</svg>
