<svg width="24" height="24" viewBox="0 0 24 24" fill="none" xmlns="http://www.w3.org/2000/svg">
<path d="M13.1755 2.32788L6.0242 7.80012L0.839722 8.25574V15.7445L6.0242 16.2001L13.1755 21.6723V2.32788Z" fill="black"/>
<path d="M16.3922 5.73554L14.7844 7.19993C15.9366 8.47212 16.6322 10.1522 16.6322 11.9999C16.6322 13.8477 15.9366 15.5522 14.7844 16.7999L16.3922 18.2643C17.9044 16.6087 18.8167 14.3998 18.8167 11.9998C18.8158 9.59983 17.9045 7.39207 16.3922 5.73535V5.73554Z" fill="black"/>
<path d="M19.08 3.28779L17.4722 4.75217C19.2 6.67217 20.2799 9.21665 20.2799 11.9999C20.2799 14.7844 19.2243 17.3277 17.4722 19.2477L19.08 20.7121C21.1678 18.4077 22.44 15.3598 22.44 11.9998C22.44 8.63984 21.1678 5.59208 19.08 3.2876V3.28779Z" fill="black"/>
</svg>
